<svg version="1.2" xmlns="http://www.w3.org/2000/svg" viewBox="0 0 80 81" width="80" height="81"><defs><linearGradient id="P" gradientUnits="userSpaceOnUse"/><linearGradient id="g1" x2="1" href="#P" gradientTransform="matrix(100,-100.001,100.001,100,-9.905,90.079)"><stop stop-color="#96e1aa"/><stop offset="1" stop-color="#0095d9"/></linearGradient></defs><style>.a{fill:none}.b{fill:url(#g1)}.c{fill:#fff}</style><path fill-rule="evenodd" class="a" d="m-9.9-9.9h100v100h-100z"/><path fill-rule="evenodd" class="b" d="m40.1 78.7c-21.4 0-38.6-17.3-38.6-38.6 0-21.4 17.2-38.6 38.6-38.6 21.3 0 38.6 17.2 38.6 38.6 0 21.3-17.3 38.6-38.6 38.6z"/><path fill-rule="evenodd" class="c" d="m13.8 68.4v-0.6c0-10 8.1-18.1 18.1-18.1h16.4c10 0 18 8.1 18 18.1v0.6c-6.8 6.4-16.1 10.3-26.2 10.3-10.1 0-19.4-3.9-26.3-10.3z"/><path fill-rule="evenodd" class="c" d="m40.1 47.4c-9 0-16.3-7.3-16.3-16.3 0-9.1 7.3-16.4 16.3-16.4 9 0 16.3 7.3 16.3 16.4 0 9-7.3 16.3-16.3 16.3z"/></svg>